<?xml version="1.0" encoding="UTF-8" standalone="no"?>
<!-- Created with Inkscape (http://www.inkscape.org/) -->

<svg
   width="64"
   height="64"
   viewBox="0 0 16.933333 16.933334"
   version="1.1"
   id="svg843"
   xmlns="http://www.w3.org/2000/svg"
   xmlns:svg="http://www.w3.org/2000/svg">
  <defs
     id="defs840" />
  <g
     id="layer1">
    <g
       id="g20271"
       transform="matrix(0.09585422,0,0,0.09585422,-2.1443952,-5.2130992)">
      <path
         id="circle20261"
         style="fill:#383838;stroke-width:0.232144"
         d="M 199.02857,142.71428 A 88.328575,88.328575 0 0 1 110.7,231.04285 88.328575,88.328575 0 0 1 22.371422,142.71428 88.328575,88.328575 0 0 1 110.7,54.385704 88.328575,88.328575 0 0 1 199.02857,142.71428 Z" />
      <g
         id="g20269"
         transform="translate(0.57855646,-5.9784493)"
         style="stroke:#000000;stroke-width:1.5;stroke-miterlimit:4;stroke-dasharray:none">
        <path
           id="path20263"
           style="fill:#00afff;fill-opacity:1;stroke:#000000;stroke-width:1.5;stroke-miterlimit:4;stroke-dasharray:none"
           d="m 110.12145,74.779928 73.91279,73.912802 -17.79167,17.79167 -23.19755,-10.08258 -0.10542,0.24184 23.10246,10.04125 -55.92061,55.92062 v -50.18815 l 26.03148,11.31507 0.10542,-0.24236 -26.1369,-11.36107 z" />
        <path
           id="path20265"
           style="fill:#00afff;fill-opacity:1;stroke:#000000;stroke-width:1.5;stroke-miterlimit:4;stroke-dasharray:none"
           d="m 110.12144,74.779927 -73.912799,73.912803 17.791678,17.79167 23.19755,-10.08258 0.10542,0.24184 -23.102463,10.04125 55.920614,55.92062 v -50.18815 l -26.031481,11.31507 -0.10542,-0.24236 26.136901,-11.36107 z" />
        <path
           id="path20267"
           style="fill:#ffff91;fill-opacity:1;stroke:#000000;stroke-width:5.66929;stroke-miterlimit:4;stroke-dasharray:none"
           d="M 416.20703,282.63281 136.85156,561.98828 337.0293,474.97656 416.20703,841.34375 495.38477,474.97656 695.5625,561.98828 Z"
           transform="scale(0.26458333)" />
      </g>
    </g>
  </g>
</svg>
